<svg width="21" height="18" viewBox="0 0 21 18" fill="none" xmlns="http://www.w3.org/2000/svg">
<path d="M15.0496 0.394531H5.74727C2.34793 0.394531 0.398438 2.34402 0.398438 5.74337V12.255C0.398438 15.6543 2.34793 17.6038 5.74727 17.6038H15.0496C18.4489 17.6038 20.3984 15.6543 20.3984 12.255V5.74337C20.3984 2.34402 18.4489 0.394531 15.0496 0.394531ZM19.0031 12.255C19.0031 14.9153 17.7099 16.2085 15.0496 16.2085H5.74727C3.08694 16.2085 1.79379 14.9153 1.79379 12.255V5.74337C1.79379 3.08303 3.08694 1.78988 5.74727 1.78988H15.0496C17.7099 1.78988 19.0031 3.08303 19.0031 5.74337V12.255ZM15.5942 5.77289C15.6515 5.84439 15.6941 5.92647 15.7196 6.01444C15.7451 6.10241 15.753 6.19455 15.7429 6.28559C15.7328 6.37663 15.7048 6.46478 15.6606 6.545C15.6164 6.62521 15.5568 6.69593 15.4852 6.75309L12.5773 9.07913C11.9505 9.55504 11.1852 9.81268 10.3982 9.81268C9.61121 9.81268 8.84586 9.55504 8.21909 9.07913L5.31168 6.75309C5.16752 6.63747 5.07514 6.46936 5.05484 6.28569C5.03453 6.10201 5.08796 5.91778 5.20339 5.77347C5.31881 5.62915 5.4868 5.53655 5.67045 5.51601C5.8541 5.49546 6.0384 5.54864 6.18287 5.66388L9.09077 7.98992C9.47072 8.26622 9.92843 8.41505 10.3982 8.41505C10.868 8.41505 11.3257 8.26622 11.7057 7.98992L14.614 5.66388C14.6855 5.6066 14.7676 5.56397 14.8555 5.53845C14.9435 5.51292 15.0357 5.50499 15.1267 5.51512C15.2178 5.52524 15.3059 5.55322 15.3861 5.59745C15.4663 5.64169 15.5371 5.7013 15.5942 5.77289Z" fill="#6F797F"/>
</svg>
