<svg width="24" height="20" viewBox="0 0 24 20" fill="none" xmlns="http://www.w3.org/2000/svg">
<path d="M23.037 9.23508C22.1347 7.27815 20.813 5.54359 19.1657 4.15429L21.9975 1.3225L20.6759 0L17.6004 3.07276C15.8981 2.08809 13.963 1.57756 11.9966 1.59428C4.9918 1.59428 1.77615 7.44186 0.956123 9.23508C0.846043 9.47539 0.789063 9.73661 0.789062 10.0009C0.789062 10.2653 0.846043 10.5265 0.956123 10.7668C1.85846 12.7237 3.18011 14.4583 4.82742 15.8476L1.99656 18.6794L3.31719 20L6.39275 16.9272C8.09504 17.9119 10.0301 18.4224 11.9966 18.4057C19.0013 18.4057 22.217 12.5581 23.037 10.7649C23.1469 10.5249 23.2037 10.264 23.2037 10C23.2037 9.73601 23.1469 9.47512 23.037 9.23508ZM2.65688 10.0103C3.35736 8.47389 6.10602 3.46222 11.9966 3.46222C13.4625 3.45365 14.9093 3.79565 16.2162 4.4597L14.5678 6.10815C13.6711 5.51284 12.5961 5.2461 11.5251 5.35318C10.4542 5.46025 9.45324 5.93456 8.69218 6.69562C7.93113 7.45668 7.45682 8.45761 7.34974 9.52856C7.24266 10.5995 7.50941 11.6745 8.10472 12.5712L6.163 14.5129C4.669 13.2963 3.47025 11.7569 2.65688 10.0103ZM14.7985 10C14.7985 10.7431 14.5033 11.4558 13.9778 11.9812C13.4523 12.5067 12.7397 12.8019 11.9966 12.8019C11.5805 12.8003 11.1702 12.7045 10.7964 12.5217L14.5183 8.79985C14.7011 9.17362 14.7969 9.58393 14.7985 10ZM9.19466 10C9.19466 9.25689 9.48986 8.54421 10.0153 8.01875C10.5408 7.49329 11.2535 7.19809 11.9966 7.19809C12.4126 7.1997 12.8229 7.2955 13.1967 7.47828L9.47485 11.2001C9.29206 10.8264 9.19627 10.4161 9.19466 10ZM11.9966 16.5378C10.5306 16.5463 9.08385 16.2043 7.77689 15.5403L9.42535 13.8918C10.322 14.4872 11.397 14.7539 12.468 14.6468C13.539 14.5397 14.5399 14.0654 15.3009 13.3044C16.062 12.5433 16.5363 11.5424 16.6434 10.4714C16.7505 9.40048 16.4837 8.32546 15.8884 7.42878L17.8292 5.488C19.3261 6.70572 20.5256 8.24886 21.3362 10C20.6227 11.5476 17.8731 16.5378 11.9966 16.5378Z" fill="#58656F"/>
</svg>
