<svg width="15" height="15" viewBox="0 0 15 15" fill="none" xmlns="http://www.w3.org/2000/svg">
<path d="M14.5943 6.40813C14.4486 6.24375 14.3055 6.08751 14.2074 5.98938L12.8043 4.56252C12.6867 4.45202 12.5309 4.3913 12.3695 4.39308C12.2081 4.39485 12.0537 4.45898 11.9385 4.57205C11.8233 4.68511 11.7564 4.83834 11.7516 4.99966C11.7469 5.16098 11.8047 5.31788 11.9131 5.43751L13.3199 6.86875L13.3249 6.875H8.12497V1.71568L9.52058 3.08692C9.64022 3.19524 9.79712 3.25308 9.95844 3.24834C10.1198 3.24359 10.273 3.17663 10.386 3.06147C10.4991 2.9463 10.5632 2.79187 10.565 2.63049C10.5668 2.46911 10.5061 2.3133 10.3956 2.19568L8.97121 0.795695C8.86934 0.693821 8.71309 0.551322 8.54997 0.406324C8.26431 0.154162 7.89844 0.0115361 7.51748 0.0038291C7.51171 0.00228145 7.50587 0.00102983 7.49998 7.91417e-05H7.49311C7.09389 -0.00387117 6.70737 0.140186 6.40812 0.404449C6.24375 0.550073 6.0875 0.693196 5.98937 0.79132L4.56252 2.19568C4.5001 2.25219 4.44975 2.32073 4.41448 2.39719C4.37921 2.47365 4.35975 2.55645 4.35728 2.64061C4.3548 2.72477 4.36936 2.80857 4.40007 2.88697C4.43079 2.96537 4.47703 3.03675 4.53602 3.09683C4.595 3.15692 4.66552 3.20446 4.74334 3.23661C4.82116 3.26877 4.90468 3.28486 4.98887 3.28394C5.07307 3.28301 5.15621 3.26508 5.2333 3.23122C5.3104 3.19737 5.37985 3.14828 5.43751 3.08692L6.86874 1.68006L6.87499 1.67506V6.875H1.67505L1.68443 6.86562L3.08691 5.43751C3.14828 5.37986 3.19736 5.3104 3.23122 5.23331C3.26507 5.15622 3.283 5.07308 3.28393 4.98888C3.28485 4.90469 3.26876 4.82117 3.23661 4.74335C3.20445 4.66553 3.15691 4.59501 3.09682 4.53602C3.03674 4.47704 2.96536 4.4308 2.88696 4.40008C2.80856 4.36937 2.72477 4.35481 2.6406 4.35729C2.55644 4.35976 2.47364 4.37922 2.39718 4.41448C2.32073 4.44975 2.25218 4.50011 2.19567 4.56252L0.796312 5.98563C0.694438 6.08751 0.551315 6.24375 0.406317 6.4075C0.141073 6.70654 -0.00369608 7.09341 7.17389e-05 7.49311V7.49999C7.17389e-05 7.50624 0.0031967 7.51186 0.00382169 7.51811C0.0112731 7.89931 0.153923 8.26546 0.406317 8.55123C0.55194 8.71497 0.694438 8.87122 0.792562 8.96997L2.19567 10.3975C2.31329 10.508 2.4691 10.5687 2.63048 10.5669C2.79186 10.5651 2.9463 10.501 3.06146 10.3879C3.17662 10.2749 3.24359 10.1216 3.24833 9.96032C3.25307 9.799 3.19523 9.6421 3.08691 9.52246L1.71505 8.12498H6.87499V13.3249L6.86561 13.3162L5.43751 11.9137C5.38008 11.8515 5.31064 11.8017 5.23337 11.7672C5.15611 11.7326 5.07264 11.7142 4.98803 11.7129C4.90342 11.7116 4.81942 11.7275 4.74114 11.7596C4.66285 11.7917 4.5919 11.8394 4.5326 11.8998C4.47329 11.9601 4.42686 12.0319 4.39612 12.1108C4.36539 12.1896 4.35098 12.2739 4.35378 12.3584C4.35657 12.443 4.37652 12.5262 4.4124 12.6028C4.44828 12.6794 4.49935 12.748 4.56252 12.8043L5.98625 14.2037C6.08812 14.3055 6.24437 14.448 6.40812 14.5937C6.70379 14.8555 7.08506 15 7.47998 15C7.8749 15 8.25617 14.8555 8.55184 14.5937C8.71559 14.448 8.87121 14.3062 8.96996 14.2068L10.3974 12.8043C10.4606 12.748 10.5117 12.6794 10.5476 12.6028C10.5834 12.5262 10.6034 12.443 10.6062 12.3584C10.609 12.2739 10.5946 12.1896 10.5638 12.1108C10.5331 12.0319 10.4867 11.9601 10.4274 11.8998C10.3681 11.8394 10.2971 11.7917 10.2188 11.7596C10.1405 11.7275 10.0565 11.7116 9.97193 11.7129C9.88732 11.7142 9.80385 11.7326 9.72659 11.7672C9.64933 11.8017 9.57988 11.8515 9.52246 11.9137L8.12497 13.2849V8.12498H13.2849L11.9099 9.52059C11.8486 9.57824 11.7995 9.6477 11.7656 9.72479C11.7318 9.80189 11.7138 9.88503 11.7129 9.96922C11.712 10.0534 11.7281 10.1369 11.7602 10.2148C11.7924 10.2926 11.8399 10.3631 11.9 10.4221C11.9601 10.4811 12.0315 10.5273 12.1099 10.558C12.1883 10.5887 12.2721 10.6033 12.3562 10.6008C12.4404 10.5983 12.5232 10.5789 12.5997 10.5436C12.6761 10.5083 12.7447 10.458 12.8012 10.3956L14.2005 8.97122C14.3024 8.86935 14.4449 8.7131 14.5905 8.54935C14.8519 8.25418 14.9965 7.87372 14.9972 7.47945C14.9979 7.08518 14.8546 6.70422 14.5943 6.40813Z" fill="#2E3F50"/>
</svg>
