<svg width="20" height="20" viewBox="0 0 20 20" fill="none" xmlns="http://www.w3.org/2000/svg">
<path d="M2.50001 0.500004C2.50001 0.223858 2.27613 0 1.99999 0C1.72385 0 1.5 0.223858 1.5 0.500004V17.5H0.499989C0.223858 17.5 0 17.7239 0 18C0 18.2761 0.223858 18.5 0.499989 18.5H1.5V19.5C1.5 19.7762 1.72385 20 1.99999 20C2.27613 20 2.50001 19.7762 2.50001 19.5V18.5H19.5C19.7761 18.5 20 18.2761 20 18C20 17.7239 19.7761 17.5 19.5 17.5H18V8C18 7.44771 17.5523 6.99999 17 6.99999H15C14.4477 6.99999 14 7.44771 14 8V17.5H13V11C13 10.4477 12.5523 9.99999 12 9.99999H10C9.44771 9.99999 9 10.4477 9 11V17.5H7.99999V14C7.99999 13.4477 7.55229 13 7 13H4.99999C4.44772 13 4 13.4477 4 14V17.5H2.50001V0.500004Z" fill="white"/>
<path d="M17.2532 1.75083L17.4647 2.54405C17.5359 2.81086 17.8099 2.96947 18.0767 2.89831C18.3435 2.82718 18.5021 2.55319 18.431 2.28636L17.9672 0.547154C17.8675 0.173606 17.484 -0.048461 17.1104 0.0511534L15.3712 0.514946C15.1044 0.586106 14.9458 0.86009 15.0169 1.1269C15.0881 1.39373 15.3621 1.55235 15.6289 1.48119L16.3644 1.28503C12.4426 7.43976 6.11117 9.66367 3.43728 10.002C3.16332 10.0367 2.96933 10.2869 3.00401 10.5608C3.03867 10.8348 3.28887 11.0288 3.56283 10.9941C6.46639 10.6267 13.1388 8.26817 17.2532 1.75083Z" fill="white"/>
</svg>
