<svg width="20" height="20" viewBox="0 0 20 20" fill="none" xmlns="http://www.w3.org/2000/svg">
<path d="M0.078125 10.5233V18.2411C0.078125 19.2103 0.86668 19.9989 1.83594 19.9989H18.2422C18.4995 19.9989 18.7437 19.9429 18.9642 19.8431L0.0826953 10.4023C0.08 10.4425 0.078125 10.4827 0.078125 10.5233Z" fill="#BDC8D3"/>
<path d="M19.9938 10.4023L11.3477 14.7254L19.839 18.9711C19.9411 18.7486 19.9984 18.5014 19.9984 18.2411V10.5233C19.9984 10.4827 19.9965 10.4425 19.9938 10.4023Z" fill="#BDC8D3"/>
<path d="M13.3594 4.60156L9.84375 5.77344V7.2725L13.3594 8.44438V4.60156Z" fill="#BDC8D3"/>
<path d="M6.71875 6.52344C6.71875 6.84652 6.9816 7.10938 7.30469 7.10938H8.67188V5.9375H7.30469C6.9816 5.9375 6.71875 6.20035 6.71875 6.52344Z" fill="#BDC8D3"/>
<path d="M16.2891 10.9464V0.585938C16.2891 0.262344 16.0267 0 15.7031 0H4.375C4.05141 0 3.78906 0.262344 3.78906 0.585938V10.9465L10.0391 14.0715L16.2891 10.9464ZM9.0625 8.28125V10.0391C9.0625 10.3627 8.80016 10.625 8.47656 10.625C8.15297 10.625 7.89062 10.3627 7.89062 10.0391V8.28125H7.30469C6.33543 8.28125 5.54688 7.4927 5.54688 6.52344C5.54688 5.55418 6.33543 4.76562 7.30469 4.76562H9.16273L13.3594 3.36672V3.00781C13.3594 2.68422 13.6217 2.42188 13.9453 2.42188C14.2689 2.42188 14.5312 2.68422 14.5312 3.00781V10.0391C14.5312 10.3627 14.2689 10.625 13.9453 10.625C13.6217 10.625 13.3594 10.3627 13.3594 10.0391V9.68016L9.1627 8.28125H9.0625Z" fill="#BDC8D3"/>
<path d="M2.61816 7.25781L0.593945 9.28203C0.579141 9.29684 0.565 9.31211 0.550781 9.32734L2.61816 10.3611V7.25781Z" fill="#BDC8D3"/>
<path d="M19.4852 9.28203L17.4609 7.25781V10.3611L19.5283 9.32738C19.5141 9.31211 19.5 9.29684 19.4852 9.28203Z" fill="#BDC8D3"/>
</svg>
