<svg width="20" height="20" viewBox="0 0 20 20" fill="none" xmlns="http://www.w3.org/2000/svg">
<path d="M9.87156 3.34349C6.38684 3.40096 3.45098 6.28018 3.32689 9.76073C3.25359 11.7829 4.08813 13.7027 5.61727 15.0294C6.27607 15.6016 6.65336 16.4811 6.65336 17.5014C6.65336 18.879 7.7744 20 9.15196 20H10.8177C12.1953 20 13.3163 18.879 13.3163 17.5014V17.1891C13.3163 16.3845 13.6952 15.6083 14.384 15.002C15.8232 13.7377 16.6478 11.917 16.6478 10.0056C16.6478 8.20577 15.9407 6.51838 14.6572 5.25575C13.3738 3.99313 11.673 3.30268 9.87156 3.34349ZM11.6506 17.5014C11.6506 17.9611 11.2774 18.3343 10.8177 18.3343H9.15196C8.69221 18.3343 8.31909 17.9611 8.31909 17.4439C8.31909 17.1807 8.29327 16.9226 8.25496 16.6685H11.6847C11.6639 16.8401 11.6506 17.0142 11.6506 17.1891V17.5014ZM13.2846 13.751C12.859 14.125 12.5159 14.5481 12.2519 15.0028H10.8177V11.5181C11.7846 11.1733 12.4834 10.2571 12.4834 9.17273C12.4834 8.71215 12.1111 8.33986 11.6506 8.33986C11.19 8.33986 10.8177 8.71215 10.8177 9.17273C10.8177 9.6333 10.4446 10.0056 9.98482 10.0056C9.52508 10.0056 9.15196 9.63247 9.15196 9.17273C9.15196 8.71299 8.77967 8.33986 8.31909 8.33986C7.85852 8.33986 7.48622 8.71215 7.48622 9.17273C7.48622 10.2571 8.185 11.1733 9.15196 11.5181V15.0028H7.69777C7.43958 14.5381 7.10893 14.12 6.70833 13.7718C5.5623 12.7765 4.93598 11.3365 4.99095 9.8207C5.08424 7.21049 7.28634 5.0517 9.89987 5.00923C9.92819 5.00923 9.95567 5.00923 9.98482 5.00923C11.3058 5.00923 12.5476 5.51644 13.4895 6.44426C14.4523 7.39123 14.9829 8.65635 14.9829 10.0064C14.9829 11.439 14.364 12.8032 13.2855 13.7518L13.2846 13.751ZM13.9701 2.0717L14.9987 0.39764C15.2386 0.00452719 15.7516 -0.117904 16.1439 0.12446C16.5362 0.365159 16.6586 0.877372 16.4171 1.26965L15.3885 2.94372C15.2319 3.20024 14.9579 3.34099 14.678 3.34099C14.5289 3.34099 14.379 3.30101 14.2433 3.21773C13.851 2.97703 13.7286 2.46398 13.9701 2.0717ZM19.4903 5.52644L17.8804 6.2527C17.7696 6.3035 17.653 6.32682 17.5389 6.32682C17.2208 6.32682 16.9184 6.14442 16.7794 5.83626C16.5895 5.41733 16.776 4.92344 17.1958 4.73521L18.8057 4.00895C19.2271 3.81823 19.7185 4.00645 19.9068 4.42539C20.0967 4.84432 19.9101 5.33821 19.4903 5.52644ZM3.48346 1.26882C3.24277 0.876539 3.36603 0.363493 3.75831 0.123627C4.15226 -0.116239 4.66364 0.00702581 4.9035 0.398473L5.92959 2.07337C6.17029 2.46565 6.04703 2.9787 5.65475 3.21856C5.51899 3.30185 5.36824 3.34099 5.22083 3.34099C4.94015 3.34099 4.66697 3.19941 4.50956 2.94288L3.48346 1.26799V1.26882ZM3.08119 5.89206C2.93877 6.19106 2.6406 6.36513 2.32994 6.36513C2.20918 6.36513 2.08675 6.33931 1.97098 6.28268L0.473483 5.56558C0.0587157 5.36736 -0.117019 4.87014 0.082036 4.45537C0.279425 4.03977 0.779146 3.86237 1.19225 4.06392L2.68974 4.78102C3.10451 4.97924 3.28025 5.4773 3.08119 5.89206Z" fill="#344047"/>
</svg>
