<svg width="15" height="16" viewBox="0 0 15 16" fill="none" xmlns="http://www.w3.org/2000/svg">
<path d="M7.5 0.5C6.01664 0.5 4.56659 0.939867 3.33323 1.76398C2.09986 2.58809 1.13856 3.75943 0.570907 5.12987C0.00324963 6.50032 -0.145275 8.00832 0.144114 9.46317C0.433503 10.918 1.14781 12.2544 2.1967 13.3033C3.2456 14.3522 4.58197 15.0665 6.03682 15.3559C7.49168 15.6453 8.99968 15.4968 10.3701 14.9291C11.7406 14.3614 12.9119 13.4001 13.736 12.1668C14.5601 10.9334 15 9.48336 15 8C14.9976 6.01161 14.2067 4.10534 12.8007 2.69933C11.3947 1.29332 9.48839 0.502382 7.5 0.5ZM7.5 12.5C7.35167 12.5 7.20666 12.456 7.08332 12.3736C6.95999 12.2912 6.86386 12.1741 6.80709 12.037C6.75033 11.9 6.73547 11.7492 6.76441 11.6037C6.79335 11.4582 6.86478 11.3246 6.96967 11.2197C7.07456 11.1148 7.2082 11.0433 7.35368 11.0144C7.49917 10.9855 7.64997 11.0003 7.78701 11.0571C7.92406 11.1139 8.04119 11.21 8.1236 11.3333C8.20601 11.4567 8.25 11.6017 8.25 11.75C8.25 11.9489 8.17098 12.1397 8.03033 12.2803C7.88968 12.421 7.69891 12.5 7.5 12.5ZM8.90325 8.3435C8.71423 8.44872 8.55509 8.60031 8.44081 8.784C8.32653 8.96769 8.26086 9.17743 8.25 9.3935V9.5C8.25 9.69891 8.17098 9.88968 8.03033 10.0303C7.88968 10.171 7.69891 10.25 7.5 10.25C7.30109 10.25 7.11032 10.171 6.96967 10.0303C6.82902 9.88968 6.75 9.69891 6.75 9.5V9.39425C6.76071 8.92522 6.89016 8.46657 7.12625 8.06115C7.36234 7.65573 7.69736 7.31679 8.1 7.076C8.30583 6.9454 8.46406 6.75191 8.5512 6.52425C8.63835 6.29659 8.64976 6.04691 8.58375 5.81225C8.533 5.62769 8.43519 5.45948 8.29991 5.32406C8.16463 5.18865 7.99651 5.09068 7.812 5.03975C7.64173 4.99217 7.46271 4.98496 7.28916 5.01868C7.11561 5.0524 6.95232 5.12612 6.81225 5.234C6.6757 5.33884 6.5652 5.47378 6.48936 5.62833C6.41352 5.78288 6.37438 5.95285 6.375 6.125C6.375 6.32391 6.29598 6.51468 6.15533 6.65533C6.01468 6.79598 5.82391 6.875 5.625 6.875C5.42609 6.875 5.23532 6.79598 5.09467 6.65533C4.95402 6.51468 4.875 6.32391 4.875 6.125C4.87227 5.48687 5.10209 4.8696 5.52147 4.38862C5.94086 3.90765 6.52108 3.59592 7.15364 3.51172C7.7862 3.42753 8.42777 3.57664 8.95836 3.93117C9.48895 4.2857 9.87222 4.82137 10.0365 5.438C10.1806 5.97988 10.1485 6.55358 9.94476 7.07597C9.74101 7.59836 9.37622 8.04232 8.90325 8.3435Z" fill="#6F797F"/>
</svg>
